<?xml version="1.0" encoding="UTF-8" standalone="no"?>
<svg
   id="Layer_1"
   data-name="Layer 1"
   viewBox="0 0 512 512"
   version="1.1"
   width="512"
   height="512"
   xmlns:xlink="http://www.w3.org/1999/xlink"
   xmlns="http://www.w3.org/2000/svg"
   xmlns:svg="http://www.w3.org/2000/svg">
  <defs
     id="defs2">
    <style
       id="style1">
      .cls-1 {
        fill: url(#linear-gradient-15);
      }

      .cls-2 {
        fill: url(#linear-gradient-13);
      }

      .cls-3 {
        fill: url(#linear-gradient-2);
      }

      .cls-4 {
        fill: url(#linear-gradient-10);
      }

      .cls-5 {
        fill: url(#linear-gradient-12);
      }

      .cls-6 {
        fill: url(#linear-gradient-4);
      }

      .cls-7 {
        fill: url(#linear-gradient-3);
      }

      .cls-8 {
        fill: url(#linear-gradient-5);
      }

      .cls-9 {
        fill: url(#linear-gradient-22);
      }

      .cls-10 {
        fill: url(#linear-gradient-8);
      }

      .cls-11 {
        fill: url(#linear-gradient-14);
      }

      .cls-12 {
        fill: url(#linear-gradient-20);
      }

      .cls-13 {
        fill: url(#linear-gradient-17);
      }

      .cls-14 {
        fill: url(#linear-gradient-7);
      }

      .cls-15 {
        fill: url(#linear-gradient-9);
      }

      .cls-16 {
        fill: url(#linear-gradient-11);
      }

      .cls-17 {
        fill: url(#linear-gradient-19);
      }

      .cls-18 {
        fill: url(#linear-gradient-6);
      }

      .cls-19 {
        fill: url(#linear-gradient-21);
      }

      .cls-20 {
        fill: url(#linear-gradient-16);
      }

      .cls-21 {
        fill: url(#linear-gradient);
      }

      .cls-22 {
        fill: url(#linear-gradient-23);
      }

      .cls-23 {
        fill: url(#linear-gradient-18);
      }
    </style>
    <linearGradient
       id="linear-gradient"
       x1="792.09003"
       y1="69.139999"
       x2="792.09003"
       y2="1106.9"
       gradientUnits="userSpaceOnUse">
      <stop
         offset="0"
         stop-color="#669bbc"
         id="stop1" />
      <stop
         offset="1"
         stop-color="#003049"
         id="stop2" />
    </linearGradient>
    <linearGradient
       id="linear-gradient-2"
       x1="574.28003"
       y1="69.139999"
       x2="574.28003"
       y2="1106.9"
       xlink:href="#linear-gradient" />
    <linearGradient
       id="linear-gradient-3"
       x1="266.81"
       y1="69.139999"
       x2="266.81"
       y2="1106.9"
       xlink:href="#linear-gradient" />
    <linearGradient
       id="linear-gradient-4"
       x1="784.09998"
       y1="69.139999"
       x2="784.09998"
       y2="1106.9"
       xlink:href="#linear-gradient" />
    <linearGradient
       id="linear-gradient-5"
       x1="343.35001"
       y1="69.139999"
       x2="343.35001"
       y2="1106.9"
       xlink:href="#linear-gradient" />
    <linearGradient
       id="linear-gradient-6"
       x1="789.15997"
       x2="789.15997"
       xlink:href="#linear-gradient" />
    <linearGradient
       id="linear-gradient-7"
       x1="545.75"
       y1="69.139999"
       x2="545.75"
       y2="1106.9"
       xlink:href="#linear-gradient" />
    <linearGradient
       id="linear-gradient-8"
       x1="328.63"
       y1="69.139999"
       x2="328.63"
       y2="1106.9"
       xlink:href="#linear-gradient" />
    <linearGradient
       id="linear-gradient-9"
       x1="926.03003"
       y1="69.139999"
       x2="926.03003"
       y2="1106.9"
       xlink:href="#linear-gradient" />
    <linearGradient
       id="linear-gradient-10"
       x1="238.86"
       y1="69.139999"
       x2="238.86"
       y2="1106.9"
       xlink:href="#linear-gradient" />
    <linearGradient
       id="linear-gradient-11"
       x1="274.92999"
       y1="69.139999"
       x2="274.92999"
       y2="1106.9"
       xlink:href="#linear-gradient" />
    <linearGradient
       id="linear-gradient-12"
       x1="735.69"
       y1="69.139999"
       x2="735.69"
       y2="1106.9"
       xlink:href="#linear-gradient" />
    <linearGradient
       id="linear-gradient-13"
       x1="880.38"
       y1="69.139999"
       x2="880.38"
       y2="1106.9"
       xlink:href="#linear-gradient" />
    <linearGradient
       id="linear-gradient-14"
       x1="700.84998"
       y1="69.139999"
       x2="700.84998"
       y2="1106.9"
       xlink:href="#linear-gradient" />
    <linearGradient
       id="linear-gradient-15"
       x1="159.23"
       y1="69.139999"
       x2="159.23"
       y2="1106.9"
       xlink:href="#linear-gradient" />
    <linearGradient
       id="linear-gradient-16"
       x1="627.35999"
       y1="69.139999"
       x2="627.35999"
       y2="1106.9"
       xlink:href="#linear-gradient" />
    <linearGradient
       id="linear-gradient-17"
       x1="461.70001"
       y1="69.139999"
       x2="461.70001"
       y2="1106.9"
       xlink:href="#linear-gradient" />
    <linearGradient
       id="linear-gradient-18"
       x1="554.41998"
       y1="69.139999"
       x2="554.41998"
       y2="1106.9"
       xlink:href="#linear-gradient" />
    <linearGradient
       id="linear-gradient-19"
       x1="715.96997"
       y1="69.139999"
       x2="715.96997"
       y2="1106.9"
       xlink:href="#linear-gradient" />
    <linearGradient
       id="linear-gradient-20"
       x1="478.62"
       y1="69.139999"
       x2="478.62"
       y2="1106.9"
       xlink:href="#linear-gradient" />
    <linearGradient
       id="linear-gradient-21"
       x1="462.92001"
       y1="69.139999"
       x2="462.92001"
       y2="1106.9"
       xlink:href="#linear-gradient" />
    <linearGradient
       id="linear-gradient-22"
       x1="424.63"
       y1="69.139999"
       x2="424.63"
       y2="1106.9"
       xlink:href="#linear-gradient" />
    <linearGradient
       id="linear-gradient-23"
       x1="183.12"
       y1="69.139999"
       x2="183.12"
       y2="1106.9"
       xlink:href="#linear-gradient" />
    <linearGradient
       xlink:href="#linear-gradient"
       id="linearGradient24"
       gradientUnits="userSpaceOnUse"
       x1="792.09003"
       y1="69.139999"
       x2="792.09003"
       y2="1106.9" />
  </defs>
  <g
     id="g24"
     transform="matrix(0.57432165,0,0,0.57432165,-54.170382,-54.121359)">
    <path
       class="cls-21"
       d="m 867.87,348.28 c -0.47,0.54 -1.04,0.97 -1.79,1.67 -0.13,-0.79 -0.24,-1.25 -0.27,-1.7 -1.03,-12.54 -4.29,-24.48 -9.18,-36 -0.46,-1.06 -1.04,-2.1 -1.7,-3.01 -0.67,-0.89 -1.66,-1.33 -2.82,-0.96 -1.16,0.37 -1.72,1.27 -1.77,2.42 -0.04,1.34 0,2.7 0.1,4.04 0.91,10.54 0.54,20.96 -1.83,31.34 -2.6,11.41 -7.28,21.74 -14.66,30.81 -6.27,7.71 -13.6,14.23 -22.59,18.63 -2.3,1.11 -4.89,1.83 -7.43,2.22 -3.37,0.52 -6.78,-1.43 -7.72,-4.34 -0.69,-2.08 -1.04,-4.33 -1.06,-6.52 -0.07,-7.9 0.27,-15.81 0.08,-23.71 -0.14,-6.75 -0.84,-13.48 -2.66,-20.02 -0.65,-2.28 -1.53,-4.58 -2.71,-6.66 -1.55,-2.7 -4.15,-3.9 -7.32,-3.71 -3.53,0.21 -6.48,1.74 -9.27,3.75 -3.7,2.67 -6.75,6.02 -9.57,9.6 -4.79,6.1 -8.76,12.7 -12.41,19.52 -4.99,9.34 -9.81,18.79 -14.89,28.11 -9.78,17.98 -21.02,35.06 -32.51,51.96 -8.16,12.04 -16.63,23.89 -25.03,35.77 8.51,11.3 16.65,23.37 22.63,32.53 2.2,-3.27 4.38,-6.5 6.53,-9.76 12.73,-19.09 25.33,-38.27 36.07,-58.61 5.09,-9.63 10.16,-19.28 15.46,-28.8 3.23,-5.83 7.05,-11.32 11.83,-16 1.93,-1.88 4.06,-3.61 6.32,-5.03 2.84,-1.78 5.36,-0.81 6.38,2.38 0.77,2.37 1.32,4.85 1.73,7.32 0.87,5.41 1.57,10.87 2.36,16.32 1,6.97 2.25,13.88 4.49,20.59 1.2,3.61 2.86,6.97 5.44,9.79 5.23,5.75 11.6,7.38 18.88,5.08 2.74,-0.85 5.38,-2.2 7.83,-3.66 9.37,-5.57 16.93,-13.07 23.19,-21.9 0.59,-0.82 1.18,-1.64 1.81,-2.51 0.95,1.01 1.66,1.75 2.53,2.67 0.91,-0.67 1.69,-1.2 2.4,-1.82 3.02,-2.54 6.07,-5.08 9.04,-7.7 9.72,-8.62 18.47,-18.06 25.46,-29.08 10.79,-17.05 15.32,-35.92 15.95,-55.8 0.67,-21.2 -1.44,-42.19 -5.93,-62.92 -0.97,-4.48 -2.59,-8.87 -4.04,-13.25 -0.46,-1.41 -1.12,-2.88 -3.11,-3.59 -0.45,0.82 -1.08,1.57 -1.3,2.41 -0.32,1.38 -0.59,2.85 -0.53,4.28 0.23,6.65 0.24,13.32 0.98,19.92 1.15,10.61 -0.59,20.77 -3.84,30.76 -4.05,12.47 -10.99,23.31 -19.56,33.16 z"
       id="path2"
       style="fill:url(#linearGradient24)" />
    <path
       class="cls-3"
       d="m 952.7,542.03 c -9.56,4.44 -17.73,10.87 -25.48,17.89 -10.32,9.37 -19.24,20.01 -27.48,31.23 -26.7,36.37 -50.42,74.61 -71.7,114.39 -13.43,25.1 -24.76,51.19 -35.94,77.35 -6.85,15.96 -13.76,31.88 -22.19,47.08 -6.32,11.42 -13.39,22.34 -22.37,31.88 -4.71,5.02 -9.86,9.52 -15.97,12.8 -6.52,3.48 -13.31,4.61 -20.39,2.11 -2.62,-0.92 -5.19,-2.11 -7.56,-3.55 -12.17,-7.32 -20.96,-17.76 -27.52,-30.2 -6.24,-11.79 -10.24,-24.36 -12.59,-37.44 -2.77,-15.23 -4.32,-30.51 -1.98,-45.99 0.26,-1.81 0.97,-2.66 2.58,-3.3 2.51,-1.01 4.95,-2.16 7.33,-3.45 13.47,-7.26 24.45,-17.43 33.82,-29.42 10.99,-14.06 18.95,-29.74 24.34,-46.73 4.8,-15.07 7.43,-30.55 7.08,-46.42 -0.38,-18.14 -4.45,-35.53 -10.43,-52.56 -5.34,-15.16 -11.93,-29.72 -19.75,-43.7 -1.91,-3.42 -3.89,-6.81 -5.95,-10.16 -0.2,-0.29 -0.4,-0.61 -0.6,-0.92 -15.92,-24.98 -42.74,-57.35 -42.74,-57.35 0,0 -0.01,-0.05 -0.07,-0.13 -0.02,-0.03 -0.06,-0.08 -0.09,-0.13 -16.61,-19.81 -32.97,-39.82 -48.7,-60.33 -9.6,-12.5 -18.93,-25.16 -25.42,-39.63 -0.41,-0.96 -0.86,-1.9 -1.28,-2.81 3.4,-3.45 6.71,-6.68 9.89,-10.05 19.41,-20.68 34.15,-44.42 45.52,-70.32 8.01,-18.23 14.55,-36.96 19.81,-56.16 0.18,-0.62 0.5,-1.21 0.75,-1.79 0.09,4.97 -0.35,9.77 -0.64,14.58 -0.73,11.35 -0.48,22.72 0.13,34.09 0.45,8.57 0.65,17.14 2.22,25.61 1.77,9.65 5.12,18.77 9.04,27.72 3.78,8.69 8.9,16.44 15.58,23.15 0.47,0.46 1,0.9 1.53,1.3 1,0.74 2.17,0.7 2.87,-0.2 0.54,-0.65 0.66,-1.69 0.71,-2.59 0.02,-0.48 -0.51,-1 -0.82,-1.5 -6.05,-9.76 -10.44,-20.21 -13.05,-31.39 -2.27,-9.6 -3.29,-19.39 -4.07,-29.21 -1.9,-24.07 -1.42,-48.17 -0.2,-72.24 1.23,-24.26 0.16,-48.39 -3.66,-72.39 -1.91,-11.81 -3.97,-23.56 -8.5,-34.76 -0.97,-2.43 -2.81,-3.72 -4.34,-5.49 -0.11,-0.14 -0.53,-0.03 -0.85,-0.04 -1.44,1.41 -1.62,3.28 -1.63,5.07 -0.05,4.34 0.02,8.68 0.16,13 0.11,3.46 0.84,6.97 0.5,10.37 -0.66,6.81 -1.61,13.61 -2.88,20.31 -2.92,15.3 -7.4,30.16 -12.42,44.87 -5.95,17.38 -12.92,34.29 -21.69,50.42 -13.52,24.83 -30.57,46.82 -52.39,64.92 -10.97,9.13 -22.78,16.88 -36.24,21.93 -6.91,2.57 -14,4.3 -21.42,4.36 -6.11,0.07 -11.9,-1.06 -17.08,-4.52 -1.76,-1.18 -2.72,-2.66 -3.26,-4.81 -1.14,-4.58 -2.67,-9.07 -4.15,-13.53 -0.44,-1.29 -1.11,-2.69 -3.2,-2.98 -0.44,1.15 -1.06,2.25 -1.23,3.43 -0.36,2.47 -0.59,4.99 -0.62,7.47 -0.14,12.7 1.46,25.22 4,37.61 1.44,7.1 3.18,14.12 6.13,20.77 4.65,10.43 12.77,15.85 24.04,16.79 7.13,0.58 14.05,-0.52 20.84,-2.56 12.26,-3.69 23.21,-9.92 33.52,-17.35 0.83,-0.59 1.7,-1.13 2.46,-1.64 0.31,0.22 0.42,0.26 0.43,0.31 0.14,1.14 0.32,2.29 0.42,3.45 0.99,13.04 4.69,25.35 10.05,37.23 9.72,21.48 21.67,41.57 36.56,59.87 2.03,2.49 4.07,4.98 6.1,7.46 0,0 0.06,0.06 0.14,0.14 0.06,0.06 0.09,0.13 0.16,0.17 3.98,4.03 45.34,46.18 58.33,62 0,-0.02 0.03,-0.06 0.06,-0.08 0.39,0.54 0.8,1.08 1.19,1.64 0.38,0.49 0.73,0.95 1.03,1.35 4.39,5.9 8.73,11.5 12.57,17.46 6.29,9.71 12.06,19.76 18.06,29.65 0.25,0.42 0.39,0.91 0.7,1.27 3.5,3.99 2.76,8.67 1.82,13.17 -1.58,7.48 -4.21,14.65 -7.26,21.65 -8.36,19.24 -20.26,35.9 -36.64,49.15 -9.78,7.93 -20.61,13.9 -32.95,16.9 -13.02,3.15 -25.81,2.39 -38.47,-2.02 -4.98,-1.75 -8.3,-5.36 -10.86,-9.52 -6.02,-9.78 -11.84,-19.68 -17.35,-29.73 -3.03,-5.55 -5.28,-11.55 -7.89,-17.37 -0.23,-0.51 -0.35,-1.11 -0.61,-1.6 -0.78,-1.47 -2.04,-1.7 -2.88,-0.27 -1.09,1.89 -2.09,3.92 -2.68,6.02 -4.31,15.05 -6.29,30.43 -5.91,46.03 0.31,13.31 4.31,25.63 12.06,36.55 4.36,6.15 8.95,12.1 13.44,18.16 4.89,6.59 9.43,13.4 12.87,20.91 1.1,2.36 1.41,4.63 0.88,7.25 -3.89,18.96 -9.84,37.27 -17.34,55.11 -5.71,13.51 -12.16,26.66 -20.33,38.91 -7.72,11.54 -16.97,21.69 -27.48,30.74 -8.99,7.73 -18.7,14.27 -29.45,19.26 -13.7,6.35 -28.01,9.73 -43.18,9.14 -8.66,-0.33 -17,-2.13 -25.1,-5.15 -18.81,-7 -32.41,-20.23 -43.06,-36.67 -11.87,-18.36 -17.68,-38.88 -19.87,-60.47 -1.47,-14.32 -1.4,-28.67 -1.03,-43.05 0.37,-14.58 2.22,-29.04 5.14,-43.34 2.5,-12.29 5.88,-24.37 10.08,-36.18 0.36,-1.07 1.05,-2.06 1.75,-2.98 13.09,-16.79 23.28,-35.21 30.39,-55.25 5.8,-16.33 9.76,-33.12 12.04,-50.28 1.9,-14.35 3.67,-28.72 5.85,-43.02 1.5,-9.84 4.43,-19.38 8.75,-28.37 1.54,-3.18 3.47,-6.25 5.59,-9.07 2.48,-3.27 5.62,-3.67 9.23,-1.66 5.91,3.29 9.92,8.3 12.51,14.38 6.98,16.37 15.56,31.87 24.86,47.01 4.66,7.57 9.59,14.96 15.62,21.53 9.19,10.03 20.48,16.54 33.52,20.18 18.03,5.02 35.89,3.75 53.57,-1.83 18.64,-5.89 35.22,-15.58 50.41,-27.78 10.69,-8.62 20.31,-18.38 29.1,-28.91 1.04,-1.25 2.02,-2.54 3.01,-3.85 -8.49,-10.52 -17.17,-20.13 -29.7,-31.9 -0.88,0.77 -1.77,1.56 -2.68,2.3 -15.42,12.85 -32.39,22.98 -51.59,29.14 -16.7,5.34 -33.61,6.66 -50.78,2.36 -11.51,-2.92 -21.84,-8.09 -30.53,-16.31 -5.51,-5.19 -10.02,-11.23 -14.14,-17.54 -9.22,-14.06 -17.27,-28.79 -24.83,-43.77 -2.86,-5.71 -6.07,-11.18 -9.85,-16.34 -2.81,-3.82 -6.02,-7.29 -10.17,-9.74 -7.01,-4.17 -14.17,-3.24 -19.63,2.8 -2.04,2.25 -3.77,4.87 -5.26,7.55 -4.2,7.56 -6.79,15.73 -9.07,24.04 -3.62,13.17 -5.1,26.72 -6.62,40.23 -1.59,14.41 -3.74,28.69 -7.29,42.76 -3.49,13.71 -8.19,26.94 -14.52,39.57 -10.08,20.13 -23.01,38.07 -39.94,53.06 -13.96,12.38 -28.58,23.89 -43.76,34.69 -36.18,25.75 -74.37,48.06 -114.1,67.8 -8.7,4.32 -17.08,9.36 -26.53,12.05 -0.44,0.13 -1.13,0.86 -1.06,1.09 0.16,0.54 0.72,1.29 1.15,1.35 1.14,0.12 2.33,-0.02 3.46,-0.2 12.34,-2.14 24.7,-4.32 37.02,-6.46 22.25,-3.91 43.93,-10.17 65.84,-15.51 17.23,-4.2 34.18,-9.51 50.85,-15.6 14.78,-5.39 28.75,-12.25 41.26,-21.87 0.57,-0.43 1.2,-0.73 2.09,-1.27 -1.97,6.59 -3.87,12.76 -5.65,18.94 -5.92,20.54 -10.29,41.37 -12.65,62.64 -1.7,15.27 -2.43,30.55 -1.72,45.89 0.94,20.05 4.18,39.69 10.97,58.63 6.78,18.89 16.62,35.88 31.04,49.98 18.66,18.25 41.13,28.64 66.9,32.05 14.66,1.96 29.07,0.76 43.15,-3.76 15.02,-4.83 28.1,-13.11 40.08,-23.2 16.49,-13.89 28.98,-30.88 38.71,-50.01 9.06,-17.74 16.36,-36.17 22.04,-55.27 4.21,-14.09 7.27,-28.41 8.74,-43.05 1.62,-15.87 1.74,-31.75 0.42,-47.64 -0.05,-0.73 0.03,-1.46 0.04,-2.53 14.38,4.4 28.7,5.95 43.43,3.36 0.04,4.63 0,9.05 0.14,13.47 0.35,11.06 0.6,22.16 1.25,33.23 1.13,19.25 4.08,38.35 6.89,57.42 2.17,14.72 5.98,29.07 10.95,43.12 4.66,13.27 11.52,25.25 21.49,35.3 3.91,3.92 8.22,7.29 13.26,9.66 5.36,2.49 10.82,3.16 16.64,1.86 3.28,-0.75 6.03,-2.59 9.1,-3.59 4.08,-1.32 7.37,-3.79 10.62,-6.34 10.86,-8.52 19.52,-19.13 27.52,-30.29 8.49,-11.82 15.14,-24.67 20.62,-38.06 8.03,-19.6 15.73,-39.35 23.14,-59.23 7.49,-20.07 15.57,-39.85 25.53,-58.82 8.07,-15.36 15.6,-31 24.2,-46.08 12.51,-21.97 26.85,-42.78 41.97,-63.04 8.85,-11.87 18.43,-23.07 29.79,-32.64 6.58,-5.56 13.45,-10.7 21.43,-14.15 5.86,-2.56 11.91,-3.17 18.07,-1.25 2.84,0.89 5.58,2.02 8.46,3.08 1.46,-1.22 1.67,-1.37 2.11,-3.4 0.59,-2.73 1.21,-5.48 1.53,-8.23 1.27,-11.16 1.34,-22.34 0.27,-33.51 -0.41,-4.1 -1.25,-8.18 -1.99,-12.25 -0.33,-1.74 -1.15,-3.23 -2.93,-4.07 -8.97,-4.25 -18.04,-5.23 -27.34,-0.91 z"
       id="path3"
       style="fill:url(#linear-gradient-2)" />
    <path
       class="cls-7"
       d="m 204.5,581.99 c 7.23,-4.8 14.36,-9.75 21.44,-14.77 3.93,-2.79 7.64,-5.88 11.48,-8.81 9.44,-7.2 18.8,-14.44 26.49,-23.65 8.42,-10.09 15.54,-20.91 19.82,-33.37 2.19,-6.37 3.93,-12.93 5.26,-19.54 1.91,-9.55 3.52,-19.18 4.77,-28.83 0.97,-7.45 1.14,-14.99 1.75,-22.49 0.8,-9.71 1.66,-19.41 2.54,-29.11 0.6,-6.63 1.1,-13.27 1.94,-19.87 1.32,-10.28 4.04,-20.25 7.29,-30.06 1.42,-4.29 3.13,-8.51 5.09,-12.59 1.01,-2.11 2.57,-4.18 4.39,-5.63 3.43,-2.72 7.16,-2.86 10.11,0.97 2.54,3.3 4.87,6.7 6.33,10.64 0.77,2.08 1.5,4.19 2.45,6.18 3.98,8.36 8.76,16.29 13.73,24.09 2.12,3.33 4.51,6.5 7,9.57 3.29,4.07 7.14,7.59 11.64,10.33 8.88,5.4 18.13,6.06 27.7,2.04 4.41,-1.86 8.27,-4.55 11.77,-7.79 6.6,-6.13 11.33,-13.64 15.52,-21.48 8.32,-15.58 12.93,-32.3 15.02,-49.77 1.54,-12.87 1.76,-25.78 0.52,-38.67 -2.89,-29.88 -10.72,-58.19 -27.38,-83.55 -3.33,-5.07 -7.1,-9.87 -10.95,-14.56 -2.25,-2.74 -4.96,-5.13 -7.66,-7.45 -2.28,-1.96 -3.48,-1.55 -4.23,1.42 -0.68,2.7 -1.18,5.48 -1.41,8.26 -0.8,9.64 -0.73,19.29 0.33,28.89 0.63,5.64 1.75,11.22 2.78,16.81 0.39,2.13 1.4,3.94 3.49,5.06 1.08,0.58 1.97,1.55 2.86,2.43 13.43,13.44 22.55,29.28 26.52,47.94 0.39,1.83 0.41,3.86 0.09,5.71 -1.8,10.29 -5.47,19.88 -11.19,28.64 -4.44,6.8 -9.9,12.6 -17.25,16.33 -9.54,4.83 -18.99,4.69 -28.05,-1.14 -2.81,-1.81 -5.46,-4.01 -7.78,-6.42 -8.26,-8.59 -13.78,-19.02 -19.03,-29.57 -3,-6.04 -5.18,-12.51 -9.35,-17.91 -2.54,-3.28 -5.27,-6.43 -9.35,-7.95 -9.15,-3.41 -14.65,-0.38 -18.3,5.6 -1.25,2.05 -2.41,4.2 -3.31,6.42 -8.07,19.84 -12.45,40.52 -13.99,61.85 -0.55,7.6 -1.1,15.22 -2.19,22.75 -1.82,12.51 -4.01,24.97 -6.18,37.42 -1.52,8.76 -3.56,17.42 -6.81,25.71 -5.95,15.21 -13.39,29.72 -22.08,43.53 -8.38,13.32 -17.99,25.77 -27.75,38.1 -8.21,10.37 -16.66,20.55 -26.15,29.77 -18.74,18.23 -37.58,36.36 -56.54,54.36 -8.89,8.44 -18.26,16.35 -28.11,23.67 -3.25,2.42 -6.4,4.97 -9.61,7.44 -0.99,0.76 -1.98,1.52 -3.05,2.15 -3.41,2.02 -3.47,2.47 -0.15,5.56 9.14,-4.07 18.27,-7.98 27.25,-12.2 8.98,-4.22 17.82,-8.77 26.72,-13.15 18.33,-9.03 36.73,-17.95 53.79,-29.3 z"
       id="path4"
       style="fill:url(#linear-gradient-3)" />
    <path
       class="cls-6"
       d="m 732.72,248.27 c -1.07,2.78 -2.02,5.64 -2.71,8.54 -2.44,10.15 -3.99,20.46 -4.39,30.89 -0.19,4.89 0.09,9.82 0.45,14.71 0.21,2.84 0.74,3.08 3.6,3.54 14.09,2.27 28.18,4.54 42.27,6.81 2.73,0.44 3.05,0.29 4.3,-2.14 0.31,-0.6 0.61,-1.22 0.78,-1.86 1.28,-4.84 2.77,-9.64 3.75,-14.55 2.03,-10.24 3.17,-20.59 3.01,-31.05 -0.02,-1.02 0.08,-2.04 0.13,-3.35 1.38,0.25 2.41,0.43 3.43,0.63 14.39,2.76 28.77,5.53 43.16,8.28 3.14,0.6 3.62,0.43 4.82,-2.53 1.01,-2.49 1.96,-5.05 2.58,-7.66 2.74,-11.48 4.46,-23.12 4.73,-34.93 0.09,-4.03 -0.32,-8.07 -0.61,-12.1 -0.13,-1.82 -1.13,-2.8 -3.09,-3.17 -15.46,-2.89 -30.89,-5.9 -46.33,-8.86 -2.79,-0.53 -3.19,-0.31 -4.47,2.29 -0.26,0.52 -0.5,1.05 -0.65,1.61 -1.28,4.84 -2.76,9.64 -3.75,14.54 -2.08,10.33 -3.19,20.78 -3.02,31.34 0.02,0.94 -0.09,1.88 -0.15,3.23 -1.33,-0.24 -2.35,-0.45 -3.38,-0.62 -13.14,-2.14 -26.29,-4.27 -39.43,-6.39 -3.25,-0.52 -3.8,-0.3 -5.01,2.83 z"
       id="path5"
       style="fill:url(#linear-gradient-4)" />
    <path
       class="cls-8"
       d="m 388.09,519.46 c 2.67,0.26 3.08,0.09 4.2,-2.4 0.79,-1.75 1.43,-3.58 1.98,-5.42 3.14,-10.6 4.56,-21.51 5.24,-32.49 0.33,-5.36 0.08,-10.78 -0.25,-16.15 -0.22,-3.52 -0.78,-3.77 -4.22,-3.99 -0.57,-0.04 -1.15,-0.07 -1.72,-0.12 -13.42,-1.29 -26.85,-2.59 -40.27,-3.87 -3.52,-0.34 -3.52,-0.32 -4.96,2.82 -0.28,0.61 -0.53,1.24 -0.74,1.88 -3.77,11.34 -5.33,23.09 -6.14,34.94 -0.4,5.93 -0.17,11.89 -0.23,18.18 -6.42,-0.56 -12.94,-1.12 -19.46,-1.69 -7.78,-0.67 -15.56,-1.29 -23.33,-2.04 -1.62,-0.16 -2.63,0.33 -3.22,1.74 -0.81,1.95 -1.72,3.89 -2.29,5.92 -3.83,13.54 -5.51,27.39 -5.65,41.43 -0.03,2.96 0.47,5.94 0.82,8.9 0.19,1.62 1.08,2.64 2.87,2.6 0.57,-0.01 1.15,0.1 1.73,0.15 13.35,1.15 26.71,2.29 40.06,3.44 3.35,0.29 3.82,0.23 4.99,-2.91 1.31,-3.51 2.56,-7.11 3.23,-10.78 1.41,-7.68 2.63,-15.4 3.52,-23.15 0.72,-6.21 0.89,-12.5 0.21,-18.76 -0.08,-0.73 -0.1,-1.47 -0.17,-2.47 3.35,0.31 6.47,0.58 9.59,0.89 11.41,1.12 22.81,2.25 34.22,3.37 z"
       id="path6"
       style="fill:url(#linear-gradient-5)" />
    <path
       class="cls-18"
       d="m 809.18,603.98 c -6.63,11.86 -13.52,23.59 -20.41,35.31 -11.72,19.95 -23.46,39.89 -35.32,59.76 -9.69,16.22 -19.58,32.33 -29.37,48.49 -0.44,0.73 -0.82,1.49 -1.23,2.23 2.38,-2.03 4.32,-4.29 6.16,-6.63 15.03,-19.22 30.11,-38.4 45.04,-57.7 5.9,-7.62 11.96,-15.2 17.04,-23.36 7.59,-12.18 14.65,-24.71 21.44,-37.37 7.99,-14.9 14.48,-30.48 18.62,-46.95 0.3,-1.19 0.68,-2.36 1.13,-3.91 4.41,1.45 8.63,2.74 12.78,4.22 2.68,0.96 5.03,2.44 6.22,5.25 0.08,0.19 0.47,0.25 1.05,0.53 0.52,-1.14 1.22,-2.19 1.49,-3.33 1.68,-6.9 2.02,-13.9 1.31,-20.97 -0.31,-3.12 -1.83,-5.49 -4.48,-7.04 -1.82,-1.06 -3.76,-1.97 -5.73,-2.71 -2.86,-1.07 -5.81,-1.92 -8.69,-2.85 -0.14,-4.39 -0.34,-8.52 -0.4,-12.65 -0.19,-12.64 -4.58,-23.75 -12.3,-33.6 -1.29,-1.65 -2.87,-3.16 -4.57,-4.38 -4.21,-3.03 -9.11,-2.81 -13.08,0.52 -1.47,1.23 -2.77,2.69 -3.98,4.18 -4.47,5.51 -7.25,11.9 -8.62,18.76 -1.52,7.55 -2.64,15.2 -3.52,22.85 -0.56,4.87 -0.37,9.81 0.68,14.68 1.01,4.71 3.72,7.77 8.42,8.91 4.31,1.05 8.64,2 12.97,2.97 3.85,0.87 7.7,1.7 11.98,2.65 -0.4,1.17 -0.65,2 -0.96,2.8 -3.86,10.1 -8.39,19.92 -13.67,29.35 z m -7.32,-64.95 c -1.63,-0.38 -3.17,-1.17 -4.99,-1.86 0.56,-1.41 0.91,-2.49 1.39,-3.51 1.66,-3.51 3.84,-6.69 6.73,-9.29 3.68,-3.31 8.19,-3.47 12.1,-0.42 1.2,0.94 2.27,2.08 3.28,3.23 4.13,4.72 6.56,10.38 8.92,16.09 0.2,0.5 0.21,1.08 0.34,1.78 -0.58,-0.03 -0.95,0.01 -1.3,-0.07 -8.83,-1.96 -17.67,-3.91 -26.48,-5.95 z"
       id="path7"
       style="fill:url(#linear-gradient-6)" />
    <path
       class="cls-14"
       d="m 513.19,221.12 c 0.51,-0.21 1.07,-0.35 1.53,-0.65 4.54,-2.92 9.31,-5.56 13.53,-8.89 7.94,-6.27 15.53,-12.99 23.32,-19.46 3.93,-3.27 7.93,-6.45 11.96,-9.59 0.92,-0.72 2.1,-1.12 3.77,-1.99 -8.98,32.49 -19.46,63.72 -28.51,95.56 0.46,-0.68 0.99,-1.33 1.38,-2.05 6.31,-11.6 12.35,-23.35 18.95,-34.78 8.6,-14.91 13.93,-30.91 16.73,-47.79 1.37,-8.27 2.49,-16.6 3.33,-24.94 0.85,-8.44 1.26,-16.93 0.67,-25.42 -0.21,-3.06 -0.59,-6.16 -1.33,-9.13 -1.15,-4.57 -3.66,-5.58 -7.75,-3.32 -1.93,1.07 -3.81,2.3 -5.51,3.7 -4.98,4.12 -9.91,8.29 -14.76,12.57 -8.61,7.61 -17.27,15.21 -27.32,20.85 -3.92,2.2 -6.08,5.1 -7.1,9.22 -0.14,0.56 -0.28,1.12 -0.43,1.68 -2.27,8.51 -3.5,17.2 -4.08,25.96 -0.3,4.51 -0.16,9.05 -0.05,13.57 0.04,1.68 0.15,3.5 1.68,4.89 z"
       id="path8"
       style="fill:url(#linear-gradient-7)" />
    <path
       class="cls-10"
       d="m 298.75,210.49 c 0.47,-0.19 0.98,-0.32 1.41,-0.6 4.16,-2.68 8.54,-5.1 12.41,-8.16 7.29,-5.76 14.26,-11.92 21.4,-17.86 3.6,-3 7.28,-5.92 10.97,-8.8 0.85,-0.66 1.92,-1.03 3.46,-1.83 -8.24,29.81 -17.85,58.47 -26.16,87.69 0.43,-0.63 0.91,-1.22 1.27,-1.88 5.79,-10.64 11.34,-21.43 17.39,-31.92 7.9,-13.69 12.78,-28.36 15.35,-43.85 1.26,-7.59 2.28,-15.23 3.05,-22.89 0.78,-7.74 1.15,-15.54 0.61,-23.32 -0.2,-2.81 -0.54,-5.65 -1.22,-8.38 -1.05,-4.2 -3.36,-5.12 -7.11,-3.05 -1.77,0.98 -3.5,2.11 -5.06,3.4 -4.57,3.78 -9.1,7.61 -13.54,11.54 -7.91,6.98 -15.85,13.96 -25.07,19.13 -3.6,2.02 -5.58,4.68 -6.52,8.46 -0.13,0.52 -0.26,1.03 -0.39,1.54 -2.08,7.81 -3.21,15.78 -3.75,23.82 -0.28,4.13 -0.15,8.3 -0.04,12.45 0.04,1.54 0.14,3.21 1.54,4.49 z"
       id="path9"
       style="fill:url(#linear-gradient-8)" />
    <path
       class="cls-15"
       d="m 896.11,439.52 c -3.12,-1.91 -6.33,-3.69 -9.59,-5.35 -4.6,-2.34 -5.21,-2.03 -7.02,2.87 -2.52,6.84 -3.85,13.93 -4.31,21.19 -0.24,3.78 -0.02,7.52 1.67,11.04 3.67,7.65 9.89,12.97 16.44,17.97 1.24,0.95 2,0.7 2.77,-0.8 0.78,-1.54 1.36,-3.19 1.93,-4.82 0.58,-1.68 1.04,-3.41 1.59,-5.24 0.46,0.31 0.74,0.42 0.91,0.62 0.79,0.97 1.59,1.94 2.32,2.96 8.19,11.35 13.11,24.19 17.09,37.46 0.58,1.93 1.15,3.91 2.06,5.69 1.29,2.55 3.01,2.86 5.52,1.45 2.77,-1.55 4.51,-3.98 5.49,-6.85 1.34,-3.91 2.68,-7.87 3.47,-11.92 1.09,-5.58 1.73,-11.25 2.46,-16.89 1.17,-9.09 2.22,-18.2 3.39,-27.28 0.83,-6.41 1.63,-12.85 3.91,-18.95 0.7,-1.87 1.65,-3.73 2.87,-5.28 2.22,-2.83 4.54,-3.3 7.63,-1.49 2.13,1.26 4.18,2.81 5.88,4.61 4.37,4.63 7.52,10 8.93,16.3 0.37,1.63 0.51,3.43 2.15,4.75 1.41,-1.12 1.85,-2.62 2.02,-4.1 0.52,-4.3 1.13,-8.62 1.24,-12.94 0.31,-11.72 -3.09,-22.26 -10.72,-31.3 -2.19,-2.6 -4.65,-4.9 -7.71,-6.47 -5.96,-3.05 -12.17,-1.21 -15.32,4.64 -0.91,1.69 -1.65,3.5 -2.25,5.32 -2.89,8.76 -4.27,17.84 -5.16,26.96 -1.09,11.23 -1.69,22.51 -2.64,33.75 -0.29,3.44 -0.93,6.87 -1.63,10.27 -0.36,1.76 -1.27,3.35 -3.2,4.48 -0.45,-0.97 -0.86,-1.7 -1.15,-2.49 -1.65,-4.43 -3.36,-8.84 -4.9,-13.31 -2.76,-8 -6.83,-15.3 -11.41,-22.37 -3.84,-5.94 -8.74,-10.78 -14.76,-14.46 z"
       id="path10"
       style="fill:url(#linear-gradient-9)" />
    <path
       class="cls-4"
       d="m 270.18,589.89 c -5.11,-2.36 -10.68,-0.51 -13.54,4.31 -1.17,1.97 -2.09,4.14 -2.81,6.32 -2.82,8.47 -4.17,17.27 -5.04,26.09 -1.13,11.42 -1.73,22.88 -2.7,34.32 -0.29,3.45 -0.93,6.87 -1.59,10.27 -0.35,1.79 -1.26,3.38 -3.24,4.58 -0.46,-0.99 -0.9,-1.8 -1.22,-2.66 -1.59,-4.24 -3.25,-8.47 -4.71,-12.76 -2.79,-8.19 -6.94,-15.67 -11.65,-22.89 -3.59,-5.5 -8.06,-10.11 -13.61,-13.6 -3.42,-2.16 -6.95,-4.16 -10.55,-6.01 -4.7,-2.41 -5.29,-2.1 -7.08,2.79 -2.55,6.93 -3.79,14.12 -4.37,21.46 -0.5,6.31 1.44,11.77 5.29,16.67 3.6,4.59 7.95,8.39 12.57,11.9 0.5,0.38 1.16,0.56 1.96,0.94 2.83,-3.38 3.15,-7.66 4.77,-11.89 0.98,1.19 1.79,2.09 2.51,3.06 8.45,11.41 13.48,24.41 17.57,37.85 0.64,2.11 1.26,4.28 2.25,6.23 1.2,2.37 2.98,2.66 5.33,1.38 2.88,-1.57 4.67,-4.09 5.65,-7.07 1.39,-4.2 2.76,-8.45 3.6,-12.78 1.08,-5.58 1.69,-11.25 2.41,-16.9 1.11,-8.71 2.11,-17.43 3.23,-26.13 0.84,-6.51 1.74,-13.01 3.92,-19.25 0.81,-2.31 1.95,-4.38 3.73,-6.11 1.57,-1.52 3.39,-1.84 5.33,-1.13 1.34,0.49 2.74,1.12 3.77,2.06 2.2,1.99 4.39,4.07 6.22,6.4 3.2,4.05 5.37,8.66 6.44,13.77 0.3,1.41 0.31,3.13 2.17,3.88 1.78,-1.81 2.13,-4.16 2.29,-6.39 0.37,-5.38 0.88,-10.8 0.54,-16.15 -0.69,-10.89 -5.02,-20.35 -12.83,-28.04 -1.88,-1.86 -4.21,-3.44 -6.61,-4.55 z"
       id="path11"
       style="fill:url(#linear-gradient-10)" />
    <path
       class="cls-16"
       d="m 307.37,781.52 c -5.96,-3.05 -12.1,-1.18 -15.31,4.67 -0.65,1.18 -1.27,2.41 -1.64,3.69 -1.24,4.35 -2.64,8.69 -3.48,13.13 -2.9,15.2 -3.88,30.61 -4.72,46.03 -0.22,3.94 -0.69,7.88 -1.31,11.78 -0.38,2.34 -1.18,4.67 -3.75,6.09 -0.4,-0.9 -0.8,-1.65 -1.09,-2.45 -1.62,-4.34 -3.31,-8.65 -4.81,-13.03 -2.8,-8.19 -7,-15.65 -11.66,-22.89 -6.51,-10.1 -16.21,-16 -26.82,-20.77 -1.32,-0.59 -2.28,-0.25 -2.92,0.94 -0.63,1.19 -1.24,2.41 -1.68,3.68 -2.51,7.25 -3.85,14.73 -4.18,22.4 -0.18,4.37 0.92,8.39 3.24,12.11 3.79,6.1 9.1,10.7 14.71,14.99 1.47,1.12 2.19,0.97 2.99,-0.66 0.92,-1.9 1.59,-3.92 2.27,-5.92 0.46,-1.33 0.76,-2.71 1.3,-4.68 1.51,1.98 2.65,3.39 3.7,4.87 7.96,11.26 12.8,23.92 16.64,37.04 0.49,1.66 0.99,3.35 1.72,4.9 1.44,3.03 3.22,3.44 6.06,1.76 3.13,-1.85 4.62,-4.85 5.8,-8.04 1.98,-5.36 3.34,-10.88 4.04,-16.55 1.67,-13.6 3.24,-27.21 5.09,-40.78 0.7,-5.14 1.89,-10.24 3.19,-15.27 0.56,-2.18 1.7,-4.33 3.04,-6.16 2.26,-3.09 4.78,-3.57 8.07,-1.55 2.19,1.35 4.27,3.02 6.01,4.91 4.24,4.61 7.27,9.94 8.61,16.15 0.33,1.53 0.44,3.26 2.05,4.34 1.31,-0.73 1.65,-1.96 1.82,-3.17 0.54,-3.81 1.19,-7.63 1.41,-11.47 0.68,-11.88 -2.14,-22.78 -9.58,-32.27 -2.46,-3.13 -5.21,-5.96 -8.82,-7.8 z"
       id="path12"
       style="fill:url(#linear-gradient-11)" />
    <path
       class="cls-5"
       d="m 710.23,217.02 c 7.15,1.07 14.31,2.12 21.47,3.17 0,0 0,0 0,0 7.44,1.11 14.89,2.17 22.31,3.37 1.72,0.28 2.8,-0.16 3.54,-1.65 0.34,-0.69 0.76,-1.36 0.98,-2.09 0.97,-3.13 2.07,-6.23 2.79,-9.41 2.42,-10.65 3.81,-21.46 4.1,-32.38 0.1,-3.93 -0.24,-7.89 -0.66,-11.8 -0.28,-2.61 -0.7,-2.8 -3.24,-3.25 -0.76,-0.14 -1.52,-0.25 -2.29,-0.37 -13.54,-2.03 -27.09,-4.05 -40.63,-6.1 -3.54,-0.53 -4.2,-0.32 -5.43,3.04 -1.19,3.25 -2.23,6.58 -3.01,9.95 -2.15,9.32 -3.45,18.78 -3.96,28.34 -0.29,5.29 -0.59,10.6 0.48,15.85 0.56,2.73 0.8,2.94 3.53,3.34 z"
       id="path13"
       style="fill:url(#linear-gradient-12)" />
    <path
       class="cls-2"
       d="m 910.15,729.58 c -1.23,-2.32 -3.15,-4.14 -5.45,-5.48 -5.31,-3.08 -10.9,-2.28 -14.57,2.24 -1.26,1.55 -2.3,3.34 -3.19,5.14 -1.9,3.84 -2.84,7.98 -3.54,12.18 -1.7,10.24 -1.69,20.54 -1.1,30.87 0.4,7.02 0.88,14.04 1.27,21.07 0.18,3.24 -1.1,6.05 -3.03,8.53 -1.33,1.7 -2.76,1.69 -4.05,-0.03 -1.03,-1.37 -1.77,-2.97 -2.58,-4.51 -2.29,-4.35 -4.43,-8.79 -6.83,-13.08 -4.06,-7.26 -10.68,-10.91 -18.56,-12.56 -3.31,-0.69 -4.16,-0.12 -4.62,3.33 -0.41,3.05 -0.72,6.17 -0.55,9.22 0.26,4.6 0.84,9.2 1.57,13.75 0.4,2.48 0.77,2.34 3.2,2.77 7.4,1.29 13.86,4.23 17.77,11.09 2.1,3.68 3.96,7.5 5.93,11.26 0.98,1.88 1.83,3.84 2.96,5.63 3.13,4.94 6.61,4.87 9.67,-0.17 1.92,-3.17 3.04,-6.67 3.76,-10.28 1.85,-9.25 1.81,-18.59 1.3,-27.95 -0.43,-7.99 -1.03,-15.96 -1.38,-23.95 -0.19,-4.44 1.09,-8.59 3.47,-12.35 3.06,-4.82 7.77,-6.15 12.74,-3.37 1.71,0.95 3.2,2.47 4.47,3.99 1.74,2.1 2.61,4.7 3.16,7.38 0.43,2.08 0.87,4.16 1.46,6.19 0.27,0.92 0.93,1.72 1.6,2.91 1.7,-1.98 1.86,-3.71 2.03,-5.44 1.03,-10.01 0,-19.86 -2.87,-29.46 -0.93,-3.1 -2.5,-6.04 -4.03,-8.92 z"
       id="path14"
       style="fill:url(#linear-gradient-13)" />
    <path
       class="cls-11"
       d="m 668.34,430.49 c -0.04,4.22 0.42,8.45 0.79,12.66 0.09,1.02 0.77,1.99 1.26,3.18 1.66,-1.07 1.96,-2.42 2.2,-3.7 0.77,-4.15 2.44,-7.92 4.69,-11.44 2.03,-3.16 4.04,-6.36 6.38,-9.29 5.73,-7.14 11.73,-14.07 17.48,-21.2 6.9,-8.55 13.87,-17.06 20.43,-25.86 5.78,-7.76 9.33,-16.58 10.76,-26.24 1.01,-6.81 1.46,-13.61 0.51,-20.44 -0.19,-1.38 -0.25,-2.9 -1.73,-4.09 -1.86,1.4 -2.3,3.3 -2.59,5.18 -0.84,5.46 -3.16,10.31 -6.13,14.86 -2.21,3.38 -4.44,6.79 -6.97,9.93 -6.66,8.25 -13.56,16.32 -20.24,24.55 -5.7,7.03 -11.41,14.08 -16.81,21.35 -6.69,9.02 -9.93,19.34 -10.03,30.55 z"
       id="path15"
       style="fill:url(#linear-gradient-14)" />
    <path
       class="cls-1"
       d="m 170,752.59 c 3.01,-2.48 5.24,-5.64 7.06,-9.08 4.75,-8.98 6.88,-18.6 6.74,-28.7 -0.05,-3.36 -0.41,-6.73 -0.81,-10.07 -0.14,-1.13 -0.23,-2.54 -1.98,-3.27 -0.52,1.02 -1.13,1.96 -1.48,2.99 -0.62,1.82 -1.02,3.72 -1.62,5.56 -1.9,5.8 -4.82,10.95 -9.72,14.76 -5.66,4.4 -11.72,4.14 -17.06,-0.65 -2.73,-2.44 -4.47,-5.55 -5.87,-8.86 -3.81,-8.97 -5.2,-18.4 -4.36,-28.03 0.7,-7.96 2.11,-15.86 3.18,-23.8 0.5,-3.72 1.24,-7.45 1.31,-11.19 0.09,-4.51 -0.35,-9.03 -0.69,-13.54 -0.09,-1.17 -0.25,-2.53 -1.77,-3.16 -1.71,1.31 -1.94,3.29 -2.3,5.11 -3.62,18.11 -6.13,36.34 -5.97,54.85 0.1,11.68 0.89,23.32 3.61,34.74 1.44,6.03 3.41,11.87 6.62,17.22 1.92,3.2 4.4,5.83 7.61,7.78 3.94,2.38 8.06,2.6 12.19,0.78 1.91,-0.84 3.69,-2.11 5.31,-3.44 z"
       id="path16"
       style="fill:url(#linear-gradient-15)" />
    <path
       class="cls-20"
       d="m 643.08,924.55 c -0.64,1.39 -1.45,2.71 -1.85,4.13 -0.86,3.06 -1.5,6.18 -2.24,9.28 -1.06,4.41 -3.01,8.37 -6.37,11.47 -2.89,2.66 -5.56,2.3 -7.76,-0.94 -2.5,-3.7 -4.37,-7.72 -5.6,-12.02 -1.95,-6.82 -2.99,-13.81 -2.68,-20.87 0.45,-10.4 1.36,-20.78 2.02,-31.17 0.28,-4.33 0.5,-8.66 0.58,-12.99 0.03,-1.58 0.02,-3.29 -1.39,-4.81 -1.55,0.81 -2,2.11 -2.32,3.39 -0.9,3.65 -1.98,7.28 -2.47,10.99 -0.9,6.78 -1.54,13.61 -2.09,20.43 -0.96,11.92 -1.75,23.86 -1.29,35.83 0.34,8.79 1.32,17.5 3.87,25.97 1.48,4.93 3.62,9.58 6.59,13.79 2.67,3.79 6.41,4.26 9.97,1.32 1.25,-1.03 2.43,-2.25 3.33,-3.59 1.51,-2.23 3,-4.52 4.1,-6.96 4.6,-10.24 6.84,-21.07 7.64,-32.22 0.19,-2.68 -0.01,-5.39 -0.16,-8.08 -0.06,-1.08 -0.11,-2.35 -1.9,-2.96 z"
       id="path17"
       style="fill:url(#linear-gradient-16)" />
    <path
       class="cls-13"
       d="m 447.85,192.87 c 1.48,4.93 3.62,9.58 6.59,13.79 2.67,3.79 6.41,4.26 9.97,1.32 1.25,-1.03 2.43,-2.25 3.33,-3.59 1.51,-2.23 3,-4.52 4.1,-6.96 4.6,-10.24 6.84,-21.07 7.64,-32.22 0.19,-2.68 -0.01,-5.39 -0.16,-8.08 -0.06,-1.08 -0.11,-2.35 -1.9,-2.96 -0.64,1.39 -1.45,2.71 -1.85,4.13 -0.86,3.06 -1.5,6.18 -2.24,9.28 -1.06,4.41 -3.01,8.37 -6.37,11.47 -2.89,2.66 -5.56,2.3 -7.76,-0.94 -2.5,-3.7 -4.37,-7.72 -5.6,-12.02 -1.95,-6.82 -2.99,-13.81 -2.68,-20.87 0.45,-10.4 1.36,-20.78 2.02,-31.17 0.28,-4.33 0.5,-8.66 0.58,-12.99 0.03,-1.58 0.02,-3.29 -1.39,-4.81 -1.55,0.81 -2,2.11 -2.32,3.39 -0.9,3.65 -1.98,7.28 -2.47,10.99 -0.9,6.78 -1.54,13.61 -2.09,20.43 -0.96,11.92 -1.75,23.86 -1.29,35.83 0.34,8.79 1.32,17.5 3.87,25.97 z"
       id="path18"
       style="fill:url(#linear-gradient-17)" />
    <path
       class="cls-23"
       d="m 544.74,426.4 c 0.03,-1.39 -0.02,-2.91 -1.61,-4.19 -0.6,0.91 -1.33,1.67 -1.65,2.58 -0.7,1.99 -1.27,4.04 -1.75,6.1 -1.87,8.02 -2.28,16.21 -2.61,24.4 -0.55,13.32 -0.11,26.59 2.17,39.75 1.21,6.95 2.75,13.84 6.09,20.12 1.24,2.34 2.91,4.57 4.82,6.41 2.48,2.39 5.76,2.47 8.44,0.29 1.83,-1.49 3.56,-3.32 4.77,-5.34 6.57,-11 9.08,-23.02 8.43,-35.75 -0.06,-1.15 -0.61,-2.28 -0.98,-3.57 -2.27,1.13 -2.5,3.08 -3.2,4.7 -0.88,2.03 -1.53,4.17 -2.54,6.13 -0.78,1.52 -1.81,2.99 -3,4.21 -2.63,2.72 -5.48,2.76 -8.07,0.06 -1.31,-1.37 -2.53,-2.98 -3.27,-4.71 -1.41,-3.26 -2.73,-6.61 -3.6,-10.04 -2.95,-11.58 -3.66,-23.38 -3.04,-35.28 0.27,-5.29 0.49,-10.58 0.61,-15.87 z"
       id="path19"
       style="fill:url(#linear-gradient-18)" />
    <path
       class="cls-17"
       d="m 707.63,777.7 c 0.17,-4.42 0.1,-8.86 -0.02,-13.28 -0.04,-1.37 -0.16,-2.9 -1.97,-4.28 -0.64,1.27 -1.29,2.22 -1.62,3.27 -0.49,1.56 -0.84,3.17 -1.12,4.79 -2.42,14.33 -2.9,28.78 -2.5,43.27 0.21,7.73 1.23,15.39 3.26,22.87 1.42,5.25 4.05,9.81 8.4,13.2 3.33,2.6 6.43,2.56 9.78,-0.02 2.2,-1.69 3.68,-3.93 4.87,-6.38 2.13,-4.39 3.23,-9.07 3.97,-13.86 0.93,-6.03 1.29,-12.08 0.59,-18.16 -0.16,-1.36 -0.16,-2.9 -1.79,-3.91 -0.46,0.59 -1,1.03 -1.21,1.59 -0.56,1.53 -0.86,3.17 -1.48,4.68 -0.84,2.03 -1.58,4.2 -2.89,5.9 -2.73,3.53 -6.14,3.69 -9.51,0.77 -2.99,-2.6 -5.09,-5.81 -6.04,-9.67 -1.24,-5.07 -2.04,-10.22 -1.72,-15.47 0.31,-5.1 0.79,-10.19 0.98,-15.3 z"
       id="path20"
       style="fill:url(#linear-gradient-19)" />
    <path
       class="cls-12"
       d="m 504.07,778.22 c -5.36,-0.64 -10.72,-1.23 -16.08,-1.85 -9.19,-1.06 -18.38,-2.09 -27.56,-3.22 -1.6,-0.2 -2.67,0.26 -3.25,1.68 -0.91,2.22 -1.93,4.43 -2.57,6.73 -3.62,13.18 -5.13,26.66 -5.39,40.28 -0.06,2.87 0.24,5.78 0.67,8.62 0.41,2.72 0.8,2.95 3.52,3.28 7.08,0.86 14.16,1.68 20.04,2.38 8.57,0.97 15.95,1.74 23.31,2.68 1.76,0.23 2.78,-0.32 3.49,-1.78 0.42,-0.86 0.88,-1.74 1.14,-2.65 1.13,-3.98 2.39,-7.94 3.25,-11.98 1.97,-9.26 3.07,-18.65 3.36,-28.1 0.13,-4.31 -0.19,-8.66 -0.6,-12.96 -0.24,-2.51 -0.8,-2.82 -3.34,-3.12 z"
       id="path21"
       style="fill:url(#linear-gradient-20)" />
    <path
       class="cls-19"
       d="m 509.78,658.71 c 0.6,-1.46 1.15,-2.43 1.4,-3.48 1.01,-4.24 1.39,-8.53 1.32,-12.91 -0.07,-3.89 -1.89,-6.36 -5.29,-7.84 -1.76,-0.77 -3.59,-1.38 -5.39,-2.06 -0.97,-0.37 -1.94,-0.72 -2.81,-1.05 -0.07,-4.13 -0.09,-7.99 -0.22,-11.83 -0.31,-8.72 -3.54,-16.36 -9.04,-22.99 -4.29,-5.18 -9.2,-5.11 -13.8,-0.18 -2.46,2.64 -4.34,5.66 -5.69,9 -3.29,8.15 -4.55,16.72 -5.05,25.42 -0.14,2.47 0.13,5.01 0.5,7.47 0.49,3.25 2.5,5.38 5.66,6.28 2.78,0.8 5.59,1.48 8.39,2.2 3.07,0.78 6.15,1.54 9.61,2.4 -0.36,1.06 -0.53,1.81 -0.86,2.48 -3.38,6.82 -6.35,13.89 -10.27,20.38 -11.45,18.98 -23.17,37.79 -34.99,56.55 -9.3,14.76 -18.89,29.34 -28.34,44 -0.55,0.86 -1.04,1.76 -1.56,2.64 1.76,-1.26 3.12,-2.75 4.4,-4.3 10.88,-13.14 21.67,-26.37 32.65,-39.43 9.96,-11.85 18.65,-24.55 26.35,-37.96 6.44,-11.22 12.33,-22.69 16.41,-35.02 0.81,-2.45 1.53,-4.93 2.38,-7.7 5.06,2.12 10.79,2.3 14.25,7.93 z m -39.12,-35.13 c 1.64,-4.32 3.86,-7.73 7.44,-10.06 2.21,-1.45 5.37,-1.06 7.51,0.92 1.47,1.36 2.9,2.91 3.87,4.63 1.65,2.92 2.95,6.05 4.36,9.11 0.18,0.4 0.16,0.89 0.3,1.83 -7.9,-2.43 -15.86,-3.23 -23.49,-6.43 z"
       id="path22"
       style="fill:url(#linear-gradient-21)" />
    <path
       class="cls-9"
       d="m 420.15,719.27 c -13.91,22 -28,43.88 -42.02,65.82 -1.02,1.6 -2.01,3.21 -3.01,4.82 0.16,0.12 0.31,0.24 0.47,0.35 0.8,-0.89 1.62,-1.75 2.38,-2.66 9.8,-11.8 19.57,-23.61 29.37,-35.4 10.17,-12.25 20.01,-24.71 28.05,-38.54 7.13,-12.27 14.02,-24.64 18.69,-38.1 1.07,-3.08 1.98,-6.21 3.06,-9.6 5.07,1.88 10.71,2.23 14.14,7.49 0.22,-0.23 0.47,-0.41 0.6,-0.65 0.31,-0.6 0.64,-1.2 0.82,-1.85 1.41,-5.18 1.82,-10.45 1.15,-15.76 -0.15,-1.23 -0.97,-2.56 -1.86,-3.46 -1.06,-1.06 -2.45,-1.88 -3.84,-2.49 -2.45,-1.07 -5.01,-1.91 -7.48,-2.83 -0.1,-4.38 -0.07,-8.61 -0.33,-12.83 -0.53,-8.58 -3.83,-16.11 -9.46,-22.52 -3.92,-4.46 -8.64,-4.37 -12.83,-0.13 -3.17,3.21 -5.34,7.05 -6.87,11.27 -2.52,6.95 -3.58,14.22 -4.24,21.51 -0.29,3.22 0.04,6.55 0.45,9.78 0.36,2.88 2.17,4.89 4.97,5.87 1,0.35 2,0.7 3.03,0.96 4.21,1.04 8.44,2.03 12.65,3.08 0.99,0.25 1.94,0.64 3.01,1 -2.85,7.21 -6.03,13.93 -9.82,20.31 -6.9,11.6 -13.87,23.15 -21.08,34.56 z m 12.11,-80.61 c 1.51,-4.08 3.63,-7.22 6.73,-9.62 2.3,-1.78 4.87,-1.82 7.29,-0.22 1.18,0.78 2.22,1.85 3.14,2.95 3.14,3.75 4.86,8.23 6.27,12.99 -7.81,-2.1 -15.81,-2.95 -23.43,-6.1 z"
       id="path23"
       style="fill:url(#linear-gradient-22)" />
    <path
       class="cls-22"
       d="m 110.34,437.25 c 18.76,9 32.54,25.83 40.92,44.57 3.58,8 6.12,16.33 7.94,24.89 0.79,3.75 1.48,7.54 1.89,11.35 0.38,3.56 0.5,7.16 0.24,10.74 -0.13,1.81 -0.37,3.6 -0.72,5.38 -0.31,1.58 -0.69,3.34 -0.48,4.96 0.05,0.42 1.41,3.46 1.41,3.46 7.82,-4.34 12.03,-16.22 15.23,-23.99 3.9,-9.46 6.68,-19.37 8.43,-29.45 6.04,-34.86 -2.06,-68.38 -8.68,-102.45 -2.74,-14.1 -5.02,-28.36 -5.34,-42.75 -0.55,-24.15 17.72,-60.98 46.68,-47.41 26.92,12.62 35.07,51.33 29.2,79.72 -0.86,4.15 -4.65,25.39 -1.92,28.81 1.04,1.31 3.86,-11.62 4.12,-12.85 7.06,-34.2 13.3,-71.68 -0.53,-105.1 -3.42,-8.26 -8.63,-16 -16.04,-21 -10.79,-7.28 -26.28,-8 -37.8,-2.56 -20.09,9.49 -32.14,34.18 -37.67,53.87 -7.46,26.56 -3.36,57.65 2.03,84.83 5.46,27.54 18.16,56.37 14.05,85.36 -0.79,5.58 -2.95,18.85 -3.23,19.28 1.97,-33.4 -13.22,-88.39 -52.74,-107.35 1.16,0.55 -11.75,35.41 -6.99,37.69 z"
       id="path24"
       style="fill:url(#linear-gradient-23)" />
  </g>
</svg>
